# 3ds Max Wavefront OBJ Exporter v0.99 - (c)2007 guruware
# File Created: 18.05.2022 15:44:16

mtllib volcano2.mtl

#
# object Cone001
#

v  4.5524 5.1390 -2.6283
v  3.7170 5.1390 -3.7170
v  2.6283 5.1390 -4.5524
v  1.3605 5.1390 -5.0775
v  -0.0000 5.1390 -5.2567
v  -1.3605 5.1390 -5.0775
v  -2.6283 5.1390 -4.5524
v  -3.7170 5.1390 -3.7170
v  -4.5524 5.1390 -2.6283
v  -5.0775 5.1390 -1.3605
v  -5.2567 5.1390 0.0000
v  -5.0775 5.1390 1.3605
v  -4.5524 5.1390 2.6283
v  -3.7170 5.1390 3.7170
v  -2.6283 5.1390 4.5524
v  -1.3605 5.1390 5.0775
v  0.0000 5.1390 5.2567
v  1.3605 5.1390 5.0775
v  2.6283 5.1390 4.5524
v  3.7170 5.1390 3.7170
v  4.5524 5.1390 2.6283
v  5.0775 5.1390 1.3605
v  5.2567 5.1390 0.0000
v  5.0775 5.1390 -1.3605
v  5.1559 5.2418 -0.0000
v  4.9802 5.2418 1.3344
v  8.3004 1.7473 2.2241
v  8.5932 1.7473 -0.0000
v  4.4651 5.2418 2.5779
v  7.4419 1.7473 4.2966
v  3.6458 5.2418 3.6458
v  6.0763 1.7473 6.0763
v  2.5779 5.2418 4.4651
v  4.2966 1.7473 7.4419
v  1.3344 5.2418 4.9802
v  2.2241 1.7473 8.3004
v  0.0000 5.2418 5.1559
v  0.0000 1.7473 8.5932
v  -1.3344 5.2418 4.9802
v  -2.2241 1.7473 8.3004
v  -2.5779 5.2418 4.4651
v  -4.2966 1.7473 7.4419
v  -3.6458 5.2418 3.6458
v  -6.0763 1.7473 6.0763
v  -4.4651 5.2418 2.5779
v  -7.4419 1.7473 4.2966
v  -4.9802 5.2418 1.3344
v  -8.3003 1.7473 2.2241
v  -5.1559 5.2418 0.0000
v  -8.5932 1.7473 0.0000
v  -4.9802 5.2418 -1.3344
v  -8.3003 1.7473 -2.2241
v  -4.4651 5.2418 -2.5779
v  -7.4419 1.7473 -4.2966
v  -3.6458 5.2418 -3.6458
v  -6.0763 1.7473 -6.0763
v  -2.5779 5.2418 -4.4651
v  -4.2966 1.7473 -7.4419
v  -1.3344 5.2418 -4.9802
v  -2.2241 1.7473 -8.3004
v  -0.0000 5.2418 -5.1559
v  -0.0000 1.7473 -8.5932
v  1.3344 5.2418 -4.9802
v  2.2241 1.7473 -8.3004
v  2.5779 5.2418 -4.4651
v  4.2966 1.7473 -7.4419
v  3.6458 5.2418 -3.6458
v  6.0763 1.7473 -6.0763
v  4.4651 5.2418 -2.5780
v  7.4419 1.7473 -4.2966
v  4.9802 5.2418 -1.3344
v  8.3003 1.7473 -2.2241
v  11.6205 -1.7473 3.1137
v  12.0304 -1.7473 -0.0000
v  10.4186 -1.7473 6.0152
v  8.5068 -1.7473 8.5068
v  6.0152 -1.7473 10.4186
v  3.1137 -1.7473 11.6205
v  0.0000 -1.7473 12.0304
v  -3.1137 -1.7473 11.6205
v  -6.0152 -1.7473 10.4186
v  -8.5068 -1.7473 8.5068
v  -10.4186 -1.7473 6.0152
v  -11.6205 -1.7473 3.1137
v  -12.0304 -1.7473 0.0000
v  -11.6205 -1.7473 -3.1137
v  -10.4186 -1.7473 -6.0152
v  -8.5068 -1.7473 -8.5068
v  -6.0152 -1.7473 -10.4186
v  -3.1137 -1.7473 -11.6205
v  -0.0000 -1.7473 -12.0304
v  3.1137 -1.7473 -11.6205
v  6.0152 -1.7473 -10.4187
v  8.5068 -1.7473 -8.5068
v  10.4186 -1.7473 -6.0152
v  11.6205 -1.7473 -3.1137
v  14.9406 -5.2418 4.0033
v  15.4677 -5.2418 -0.0000
v  13.3954 -5.2418 7.7338
v  10.9373 -5.2418 10.9373
v  7.7338 -5.2418 13.3954
v  4.0033 -5.2418 14.9406
v  0.0000 -5.2418 15.4677
v  -4.0033 -5.2418 14.9406
v  -7.7338 -5.2418 13.3954
v  -10.9373 -5.2418 10.9373
v  -13.3954 -5.2418 7.7338
v  -14.9406 -5.2418 4.0033
v  -15.4677 -5.2418 0.0000
v  -14.9406 -5.2418 -4.0033
v  -13.3954 -5.2418 -7.7338
v  -10.9373 -5.2418 -10.9373
v  -7.7338 -5.2418 -13.3954
v  -4.0033 -5.2418 -14.9406
v  -0.0000 -5.2418 -15.4677
v  4.0033 -5.2418 -14.9406
v  7.7338 -5.2418 -13.3954
v  10.9373 -5.2418 -10.9373
v  13.3954 -5.2418 -7.7339
v  14.9406 -5.2418 -4.0033
v  18.2608 -8.7364 4.8930
v  18.9049 -8.7364 -0.0000
v  16.3722 -8.7364 9.4525
v  13.3678 -8.7364 13.3678
v  9.4525 -8.7364 16.3722
v  4.8930 -8.7364 18.2608
v  0.0000 -8.7364 18.9049
v  -4.8930 -8.7364 18.2608
v  -9.4525 -8.7364 16.3722
v  -13.3678 -8.7364 13.3678
v  -16.3722 -8.7364 9.4525
v  -18.2608 -8.7364 4.8930
v  -18.9049 -8.7364 0.0000
v  -18.2608 -8.7364 -4.8930
v  -16.3722 -8.7364 -9.4525
v  -13.3678 -8.7364 -13.3678
v  -9.4525 -8.7364 -16.3722
v  -4.8930 -8.7364 -18.2608
v  -0.0000 -8.7364 -18.9049
v  4.8930 -8.7364 -18.2608
v  9.4525 -8.7364 -16.3722
v  13.3678 -8.7364 -13.3678
v  16.3722 -8.7364 -9.4525
v  18.2608 -8.7364 -4.8930
# 144 vertices

vn 0.0000 1.0000 -0.0000
vn 0.7129 0.7012 -0.0000
vn 0.6886 0.7012 0.1845
vn 0.6174 0.7012 0.3565
vn 0.5041 0.7012 0.5041
vn 0.3565 0.7012 0.6174
vn 0.1845 0.7012 0.6886
vn 0.0000 0.7012 0.7129
vn -0.1845 0.7012 0.6886
vn -0.3565 0.7012 0.6174
vn -0.5041 0.7012 0.5041
vn -0.6174 0.7012 0.3565
vn -0.6886 0.7012 0.1845
vn -0.7129 0.7012 -0.0000
vn -0.6886 0.7012 -0.1845
vn -0.6174 0.7012 -0.3565
vn -0.5041 0.7012 -0.5041
vn -0.3565 0.7012 -0.6174
vn -0.1845 0.7012 -0.6886
vn -0.0000 0.7012 -0.7129
vn 0.1845 0.7012 -0.6886
vn 0.3565 0.7012 -0.6174
vn 0.5041 0.7012 -0.5041
vn 0.6174 0.7012 -0.3565
vn 0.6886 0.7012 -0.1845
vn -0.7129 0.7012 0.0000
vn 0.0000 -1.0000 -0.0000
# 27 vertex normals

vt 0.0536 0.0000 0.0558
vt -0.0139 0.0000 0.0727
vt -0.0464 0.0000 0.0847
vt -0.0417 0.0000 0.0909
vt 0.0000 0.0000 0.0909
vt 0.0417 0.0000 0.0909
vt 0.0833 0.0000 0.0909
vt 0.1250 0.0000 0.0909
vt 0.1667 0.0000 0.0909
vt 0.2083 0.0000 0.0909
vt 0.2500 0.0000 0.0909
vt 0.2917 0.0000 0.0909
vt 0.3333 0.0000 0.0909
vt 0.3750 0.0000 0.0909
vt 0.4167 0.0000 0.0909
vt 0.4583 0.0000 0.0909
vt 0.5000 0.0000 0.0909
vt 0.5417 0.0000 0.0909
vt 0.5833 0.0000 0.0909
vt 0.6250 0.0000 0.0909
vt 0.6667 0.0000 0.0909
vt 0.7083 0.0000 0.0909
vt 0.7500 0.0000 0.0909
vt 0.1515 0.0000 0.0351
vt 0.7500 0.2000 0.2727
vt 0.7083 0.2000 0.2727
vt 0.7083 0.4000 0.4545
vt 0.7500 0.4000 0.4545
vt 0.6667 0.2000 0.2727
vt 0.6667 0.4000 0.4545
vt 0.6250 0.2000 0.2727
vt 0.6250 0.4000 0.4545
vt 0.5833 0.2000 0.2727
vt 0.5833 0.4000 0.4545
vt 0.5417 0.2000 0.2727
vt 0.5417 0.4000 0.4545
vt 0.5000 0.2000 0.2727
vt 0.5000 0.4000 0.4545
vt 0.4583 0.2000 0.2727
vt 0.4583 0.4000 0.4545
vt 0.4167 0.2000 0.2727
vt 0.4167 0.4000 0.4545
vt 0.3750 0.2000 0.2727
vt 0.3750 0.4000 0.4545
vt 0.3333 0.2000 0.2727
vt 0.3333 0.4000 0.4545
vt 0.2917 0.2000 0.2727
vt 0.2917 0.4000 0.4545
vt 0.2500 0.2000 0.2727
vt 0.2500 0.4000 0.4545
vt 0.2083 0.2000 0.2727
vt 0.2083 0.4000 0.4545
vt 0.1667 0.2000 0.2727
vt 0.1667 0.4000 0.4545
vt 0.1250 0.2000 0.2727
vt 0.1250 0.4000 0.4545
vt 0.0833 0.2000 0.2727
vt 0.0833 0.4000 0.4545
vt 0.0417 0.2000 0.2727
vt 0.0417 0.4000 0.4545
vt 0.0000 0.2000 0.2727
vt 0.0000 0.4000 0.4545
vt -0.0417 0.2000 0.2727
vt -0.0417 0.4000 0.4545
vt 0.9583 0.2000 0.2727
vt 0.9167 0.2000 0.2727
vt 0.9167 0.4000 0.4545
vt 0.9583 0.4000 0.4545
vt 0.8750 0.2000 0.2727
vt 0.8750 0.4000 0.4545
vt 0.8333 0.2000 0.2727
vt 0.8333 0.4000 0.4545
vt 0.7917 0.2000 0.2727
vt 0.7917 0.4000 0.4545
vt 0.7083 0.6000 0.6364
vt 0.7500 0.6000 0.6364
vt 0.6667 0.6000 0.6364
vt 0.6250 0.6000 0.6364
vt 0.5833 0.6000 0.6364
vt 0.5417 0.6000 0.6364
vt 0.5000 0.6000 0.6364
vt 0.4583 0.6000 0.6364
vt 0.4167 0.6000 0.6364
vt 0.3750 0.6000 0.6364
vt 0.3333 0.6000 0.6364
vt 0.2917 0.6000 0.6364
vt 0.2500 0.6000 0.6364
vt 0.2083 0.6000 0.6364
vt 0.1667 0.6000 0.6364
vt 0.1250 0.6000 0.6364
vt 0.0833 0.6000 0.6364
vt 0.0417 0.6000 0.6364
vt 0.0000 0.6000 0.6364
vt -0.0417 0.6000 0.6364
vt 0.9167 0.6000 0.6364
vt 0.9583 0.6000 0.6364
vt 0.8750 0.6000 0.6364
vt 0.8333 0.6000 0.6364
vt 0.7917 0.6000 0.6364
vt 0.7083 0.8000 0.8182
vt 0.7500 0.8000 0.8182
vt 0.6667 0.8000 0.8182
vt 0.6250 0.8000 0.8182
vt 0.5833 0.8000 0.8182
vt 0.5417 0.8000 0.8182
vt 0.5000 0.8000 0.8182
vt 0.4583 0.8000 0.8182
vt 0.4167 0.8000 0.8182
vt 0.3750 0.8000 0.8182
vt 0.3333 0.8000 0.8182
vt 0.2917 0.8000 0.8182
vt 0.2500 0.8000 0.8182
vt 0.2083 0.8000 0.8182
vt 0.1667 0.8000 0.8182
vt 0.1250 0.8000 0.8182
vt 0.0833 0.8000 0.8182
vt 0.0417 0.8000 0.8182
vt 0.0000 0.8000 0.8182
vt -0.0417 0.8000 0.8182
vt 0.9167 0.8000 0.8182
vt 0.9583 0.8000 0.8182
vt 0.8750 0.8000 0.8182
vt 0.8333 0.8000 0.8182
vt 0.7917 0.8000 0.8182
vt 0.7083 1.0000 1.0000
vt 0.7500 1.0000 1.0000
vt 0.6667 1.0000 1.0000
vt 0.6250 1.0000 1.0000
vt 0.5833 1.0000 1.0000
vt 0.5417 1.0000 1.0000
vt 0.5000 1.0000 1.0000
vt 0.4583 1.0000 1.0000
vt 0.4167 1.0000 1.0000
vt 0.3750 1.0000 1.0000
vt 0.3333 1.0000 1.0000
vt 0.2917 1.0000 1.0000
vt 0.2500 1.0000 1.0000
vt 0.2083 1.0000 1.0000
vt 0.1667 1.0000 1.0000
vt 0.1250 1.0000 1.0000
vt 0.0833 1.0000 1.0000
vt 0.0417 1.0000 1.0000
vt 0.0000 1.0000 1.0000
vt -0.0417 1.0000 1.0000
vt 0.9167 1.0000 1.0000
vt 0.9583 1.0000 1.0000
vt 0.8750 1.0000 1.0000
vt 0.8333 1.0000 1.0000
vt 0.7917 1.0000 1.0000
vt -0.0464 1.0000 0.9319
vt -0.0139 1.0000 0.8002
vt 0.0536 1.0000 0.6140
# 152 texture coords

o Cone001
g Cone001
usemtl 08___Default
s 1
f 1/1/1 2/2/1 3/3/1 
f 3/3/1 4/4/1 5/5/1 
f 5/5/1 6/6/1 7/7/1 
f 3/3/1 5/5/1 7/7/1 
f 7/7/1 8/8/1 9/9/1 
f 9/9/1 10/10/1 11/11/1 
f 7/7/1 9/9/1 11/11/1 
f 11/11/1 12/12/1 13/13/1 
f 13/13/1 14/14/1 15/15/1 
f 11/11/1 13/13/1 15/15/1 
f 7/7/1 11/11/1 15/15/1 
f 15/15/1 16/16/1 17/17/1 
f 17/17/1 18/18/1 19/19/1 
f 15/15/1 17/17/1 19/19/1 
f 19/19/1 20/20/1 21/21/1 
f 21/21/1 22/22/1 23/23/1 
f 19/19/1 21/21/1 23/23/1 
f 15/15/1 19/19/1 23/23/1 
f 7/7/1 15/15/1 23/23/1 
f 3/3/1 7/7/1 23/23/1 
f 1/1/1 3/3/1 23/23/1 
f 24/24/1 1/1/1 23/23/1 
usemtl 07___Default
s 8
f 25/25/2 26/26/3 27/27/3 
f 27/27/3 28/28/2 25/25/2 
f 26/26/3 29/29/4 30/30/4 
f 30/30/4 27/27/3 26/26/3 
f 29/29/4 31/31/5 32/32/5 
f 32/32/5 30/30/4 29/29/4 
f 31/31/5 33/33/6 34/34/6 
f 34/34/6 32/32/5 31/31/5 
f 33/33/6 35/35/7 36/36/7 
f 36/36/7 34/34/6 33/33/6 
f 35/35/7 37/37/8 38/38/8 
f 38/38/8 36/36/7 35/35/7 
f 37/37/8 39/39/9 40/40/9 
f 40/40/9 38/38/8 37/37/8 
f 39/39/9 41/41/10 42/42/10 
f 42/42/10 40/40/9 39/39/9 
f 41/41/10 43/43/11 44/44/11 
f 44/44/11 42/42/10 41/41/10 
f 43/43/11 45/45/12 46/46/12 
f 46/46/12 44/44/11 43/43/11 
f 45/45/12 47/47/13 48/48/13 
f 48/48/13 46/46/12 45/45/12 
f 47/47/13 49/49/14 50/50/14 
f 50/50/14 48/48/13 47/47/13 
f 49/49/14 51/51/15 52/52/15 
f 52/52/15 50/50/14 49/49/14 
f 51/51/15 53/53/16 54/54/16 
f 54/54/16 52/52/15 51/51/15 
f 53/53/16 55/55/17 56/56/17 
f 56/56/17 54/54/16 53/53/16 
f 55/55/17 57/57/18 58/58/18 
f 58/58/18 56/56/17 55/55/17 
f 57/57/18 59/59/19 60/60/19 
f 60/60/19 58/58/18 57/57/18 
f 59/59/19 61/61/20 62/62/20 
f 62/62/20 60/60/19 59/59/19 
f 61/61/20 63/63/21 64/64/21 
f 64/64/21 62/62/20 61/61/20 
f 63/65/21 65/66/22 66/67/22 
f 66/67/22 64/68/21 63/65/21 
f 65/66/22 67/69/23 68/70/23 
f 68/70/23 66/67/22 65/66/22 
f 67/69/23 69/71/24 70/72/24 
f 70/72/24 68/70/23 67/69/23 
f 69/71/24 71/73/25 72/74/25 
f 72/74/25 70/72/24 69/71/24 
f 71/73/25 25/25/2 28/28/2 
f 28/28/2 72/74/25 71/73/25 
f 28/28/2 27/27/3 73/75/3 
f 73/75/3 74/76/2 28/28/2 
f 27/27/3 30/30/4 75/77/4 
f 75/77/4 73/75/3 27/27/3 
f 30/30/4 32/32/5 76/78/5 
f 76/78/5 75/77/4 30/30/4 
f 32/32/5 34/34/6 77/79/6 
f 77/79/6 76/78/5 32/32/5 
f 34/34/6 36/36/7 78/80/7 
f 78/80/7 77/79/6 34/34/6 
f 36/36/7 38/38/8 79/81/8 
f 79/81/8 78/80/7 36/36/7 
f 38/38/8 40/40/9 80/82/9 
f 80/82/9 79/81/8 38/38/8 
f 40/40/9 42/42/10 81/83/10 
f 81/83/10 80/82/9 40/40/9 
f 42/42/10 44/44/11 82/84/11 
f 82/84/11 81/83/10 42/42/10 
f 44/44/11 46/46/12 83/85/12 
f 83/85/12 82/84/11 44/44/11 
f 46/46/12 48/48/13 84/86/13 
f 84/86/13 83/85/12 46/46/12 
f 48/48/13 50/50/14 85/87/26 
f 85/87/26 84/86/13 48/48/13 
f 50/50/14 52/52/15 86/88/15 
f 86/88/15 85/87/26 50/50/14 
f 52/52/15 54/54/16 87/89/16 
f 87/89/16 86/88/15 52/52/15 
f 54/54/16 56/56/17 88/90/17 
f 88/90/17 87/89/16 54/54/16 
f 56/56/17 58/58/18 89/91/18 
f 89/91/18 88/90/17 56/56/17 
f 58/58/18 60/60/19 90/92/19 
f 90/92/19 89/91/18 58/58/18 
f 60/60/19 62/62/20 91/93/20 
f 91/93/20 90/92/19 60/60/19 
f 62/62/20 64/64/21 92/94/21 
f 92/94/21 91/93/20 62/62/20 
f 64/68/21 66/67/22 93/95/22 
f 93/95/22 92/96/21 64/68/21 
f 66/67/22 68/70/23 94/97/23 
f 94/97/23 93/95/22 66/67/22 
f 68/70/23 70/72/24 95/98/24 
f 95/98/24 94/97/23 68/70/23 
f 70/72/24 72/74/25 96/99/25 
f 96/99/25 95/98/24 70/72/24 
f 72/74/25 28/28/2 74/76/2 
f 74/76/2 96/99/25 72/74/25 
f 74/76/2 73/75/3 97/100/3 
f 97/100/3 98/101/2 74/76/2 
f 73/75/3 75/77/4 99/102/4 
f 99/102/4 97/100/3 73/75/3 
f 75/77/4 76/78/5 100/103/5 
f 100/103/5 99/102/4 75/77/4 
f 76/78/5 77/79/6 101/104/6 
f 101/104/6 100/103/5 76/78/5 
f 77/79/6 78/80/7 102/105/7 
f 102/105/7 101/104/6 77/79/6 
f 78/80/7 79/81/8 103/106/8 
f 103/106/8 102/105/7 78/80/7 
f 79/81/8 80/82/9 104/107/9 
f 104/107/9 103/106/8 79/81/8 
f 80/82/9 81/83/10 105/108/10 
f 105/108/10 104/107/9 80/82/9 
f 81/83/10 82/84/11 106/109/11 
f 106/109/11 105/108/10 81/83/10 
f 82/84/11 83/85/12 107/110/12 
f 107/110/12 106/109/11 82/84/11 
f 83/85/12 84/86/13 108/111/13 
f 108/111/13 107/110/12 83/85/12 
f 84/86/13 85/87/26 109/112/26 
f 109/112/26 108/111/13 84/86/13 
f 85/87/26 86/88/15 110/113/15 
f 110/113/15 109/112/26 85/87/26 
f 86/88/15 87/89/16 111/114/16 
f 111/114/16 110/113/15 86/88/15 
f 87/89/16 88/90/17 112/115/17 
f 112/115/17 111/114/16 87/89/16 
f 88/90/17 89/91/18 113/116/18 
f 113/116/18 112/115/17 88/90/17 
f 89/91/18 90/92/19 114/117/19 
f 114/117/19 113/116/18 89/91/18 
f 90/92/19 91/93/20 115/118/20 
f 115/118/20 114/117/19 90/92/19 
f 91/93/20 92/94/21 116/119/21 
f 116/119/21 115/118/20 91/93/20 
f 92/96/21 93/95/22 117/120/22 
f 117/120/22 116/121/21 92/96/21 
f 93/95/22 94/97/23 118/122/23 
f 118/122/23 117/120/22 93/95/22 
f 94/97/23 95/98/24 119/123/24 
f 119/123/24 118/122/23 94/97/23 
f 95/98/24 96/99/25 120/124/25 
f 120/124/25 119/123/24 95/98/24 
f 96/99/25 74/76/2 98/101/2 
f 98/101/2 120/124/25 96/99/25 
f 98/101/2 97/100/3 121/125/3 
f 121/125/3 122/126/2 98/101/2 
f 97/100/3 99/102/4 123/127/4 
f 123/127/4 121/125/3 97/100/3 
f 99/102/4 100/103/5 124/128/5 
f 124/128/5 123/127/4 99/102/4 
f 100/103/5 101/104/6 125/129/6 
f 125/129/6 124/128/5 100/103/5 
f 101/104/6 102/105/7 126/130/7 
f 126/130/7 125/129/6 101/104/6 
f 102/105/7 103/106/8 127/131/8 
f 127/131/8 126/130/7 102/105/7 
f 103/106/8 104/107/9 128/132/9 
f 128/132/9 127/131/8 103/106/8 
f 104/107/9 105/108/10 129/133/10 
f 129/133/10 128/132/9 104/107/9 
f 105/108/10 106/109/11 130/134/11 
f 130/134/11 129/133/10 105/108/10 
f 106/109/11 107/110/12 131/135/12 
f 131/135/12 130/134/11 106/109/11 
f 107/110/12 108/111/13 132/136/13 
f 132/136/13 131/135/12 107/110/12 
f 108/111/13 109/112/26 133/137/26 
f 133/137/26 132/136/13 108/111/13 
f 109/112/26 110/113/15 134/138/15 
f 134/138/15 133/137/26 109/112/26 
f 110/113/15 111/114/16 135/139/16 
f 135/139/16 134/138/15 110/113/15 
f 111/114/16 112/115/17 136/140/17 
f 136/140/17 135/139/16 111/114/16 
f 112/115/17 113/116/18 137/141/18 
f 137/141/18 136/140/17 112/115/17 
f 113/116/18 114/117/19 138/142/19 
f 138/142/19 137/141/18 113/116/18 
f 114/117/19 115/118/20 139/143/20 
f 139/143/20 138/142/19 114/117/19 
f 115/118/20 116/119/21 140/144/21 
f 140/144/21 139/143/20 115/118/20 
f 116/121/21 117/120/22 141/145/22 
f 141/145/22 140/146/21 116/121/21 
f 117/120/22 118/122/23 142/147/23 
f 142/147/23 141/145/22 117/120/22 
f 118/122/23 119/123/24 143/148/24 
f 143/148/24 142/147/23 118/122/23 
f 119/123/24 120/124/25 144/149/25 
f 144/149/25 143/148/24 119/123/24 
f 120/124/25 98/101/2 122/126/2 
f 122/126/2 144/149/25 120/124/25 
s 1
f 122/126/27 121/125/27 123/127/27 
f 123/127/27 124/128/27 125/129/27 
f 125/129/27 126/130/27 127/131/27 
f 123/127/27 125/129/27 127/131/27 
f 127/131/27 128/132/27 129/133/27 
f 129/133/27 130/134/27 131/135/27 
f 127/131/27 129/133/27 131/135/27 
f 131/135/27 132/136/27 133/137/27 
f 133/137/27 134/138/27 135/139/27 
f 131/135/27 133/137/27 135/139/27 
f 127/131/27 131/135/27 135/139/27 
f 135/139/27 136/140/27 137/141/27 
f 137/141/27 138/142/27 139/143/27 
f 135/139/27 137/141/27 139/143/27 
f 139/143/27 140/144/27 141/150/27 
f 141/150/27 142/151/27 143/152/27 
f 139/143/27 141/150/27 143/152/27 
f 135/139/27 139/143/27 143/152/27 
f 127/131/27 135/139/27 143/152/27 
f 123/127/27 127/131/27 143/152/27 
f 122/126/27 123/127/27 143/152/27 
f 144/149/27 122/126/27 143/152/27 
# 236 faces

