# 3ds Max Wavefront OBJ Exporter v0.99 - (c)2007 guruware
# File Created: 21.05.2022 19:32:36

mtllib helicopter_propeller_rear.mtl

#
# object Propeller
#

v  -0.4116 -0.4727 0.4712
v  -0.0365 -0.6264 0.4712
v  0.2358 -0.1949 0.4712
v  -0.4116 -0.4727 0.2001
v  -0.4116 -0.4727 0.2806
v  -0.3028 0.0259 0.2806
v  -0.0365 -0.6264 0.2001
v  -0.3028 0.0259 0.2001
v  -0.8936 -2.9396 0.2787
v  -0.8935 -2.9395 0.1982
v  -1.6746 -3.6600 0.2175
v  -1.3736 -3.7834 0.2175
v  -1.3736 -3.7834 0.2632
v  0.2358 -0.1949 0.2806
v  0.2358 -0.1949 0.2001
v  -1.4320 -2.7181 0.2781
v  -0.0365 -0.6264 0.2806
v  -1.4319 -2.7180 0.1975
v  -1.6746 -3.6600 0.2632
v  -0.3028 0.0259 0.4712
v  -0.6166 -0.0989 0.4712
v  -0.4280 -0.4578 0.4712
v  0.0580 -0.3023 0.4712
v  -0.6166 -0.0989 0.2001
v  -0.6166 -0.0989 0.2806
v  -0.2128 0.2131 0.2806
v  -0.4280 -0.4578 0.2001
v  -0.2128 0.2131 0.2001
v  -2.5715 -1.6789 0.2768
v  -2.5714 -1.6789 0.1963
v  -3.6329 -1.7287 0.2175
v  -3.4816 -2.0167 0.2175
v  -3.4816 -2.0167 0.2632
v  0.0580 -0.3023 0.2806
v  0.0580 -0.3023 0.2001
v  -2.8415 -1.1632 0.2766
v  -0.4280 -0.4578 0.2806
v  -2.8414 -1.1631 0.1961
v  -3.6329 -1.7287 0.2632
v  -0.2128 0.2131 0.4712
v  -0.5333 0.3192 0.4712
v  -0.6195 -0.0769 0.4712
v  -0.1473 -0.2702 0.4712
v  -0.5333 0.3192 0.2001
v  -0.5333 0.3192 0.2806
v  -0.0234 0.2986 0.2806
v  -0.6195 -0.0769 0.2001
v  -0.0234 0.2986 0.2001
v  -3.0464 0.3653 0.2767
v  -3.0463 0.3653 0.1962
v  -3.8915 1.0095 0.2175
v  -3.9607 0.6916 0.2175
v  -3.9607 0.6916 0.2632
v  -0.1473 -0.2702 0.2806
v  -0.1473 -0.2702 0.2001
v  -2.9218 0.9340 0.2771
v  -0.6195 -0.0769 0.2806
v  -2.9217 0.9340 0.1965
v  -3.8915 1.0095 0.2632
v  -0.0234 0.2986 0.4712
v  -0.2008 0.5859 0.4712
v  -0.5214 0.3379 0.4712
v  -0.2839 -0.1137 0.4712
v  -0.2008 0.5859 0.2001
v  -0.2008 0.5859 0.2806
v  0.1766 0.2424 0.2806
v  -0.5214 0.3379 0.2001
v  0.1766 0.2424 0.2001
v  -2.0963 2.2366 0.2785
v  -2.0962 2.2366 0.1979
v  -2.3296 3.2733 0.2175
v  -2.5869 3.0743 0.2175
v  -2.5869 3.0743 0.2632
v  -0.2839 -0.1137 0.2806
v  -0.2839 -0.1137 0.2001
v  -1.6353 2.5921 0.2792
v  -0.5214 0.3379 0.2806
v  -1.6352 2.5921 0.1986
v  -2.3296 3.2733 0.2632
v  0.1766 0.2424 0.4712
v  0.2254 0.5765 0.4712
v  -0.1797 0.5926 0.4712
v  -0.2880 0.0940 0.4712
v  0.2254 0.5765 0.2001
v  0.2254 0.5765 0.2806
v  0.2937 0.0708 0.2806
v  -0.1797 0.5926 0.2001
v  0.2937 0.0708 0.2001
v  -0.1656 3.0593 0.2812
v  -0.1655 3.0593 0.2007
v  0.3221 4.0036 0.2175
v  -0.0029 4.0165 0.2175
v  -0.0029 4.0165 0.2632
v  -0.2880 0.0940 0.2806
v  -0.2880 0.0940 0.2001
v  0.4161 3.0353 0.2820
v  -0.1797 0.5926 0.2806
v  0.4162 3.0353 0.2014
v  0.3221 4.0036 0.2632
v  0.2937 0.0708 0.4712
v  0.5458 0.2953 0.4712
v  0.2459 0.5681 0.4712
v  -0.1576 0.2557 0.4712
v  0.5458 0.2953 0.2001
v  0.5458 0.2953 0.2806
v  0.2731 -0.1360 0.2806
v  0.2459 0.5681 0.2001
v  0.2731 -0.1360 0.2001
v  1.8422 2.4485 0.2837
v  1.8424 2.4486 0.2031
v  2.8228 2.8585 0.2175
v  2.5821 3.0773 0.2175
v  2.5821 3.0773 0.2632
v  -0.1576 0.2557 0.2806
v  -0.1576 0.2557 0.2001
v  2.2724 2.0563 0.2842
v  0.2459 0.5681 0.2806
v  2.2725 2.0563 0.2036
v  2.8228 2.8585 0.2632
v  0.2731 -0.1360 0.4712
v  0.6105 -0.1260 0.4712
v  0.5561 0.2757 0.4712
v  0.0462 0.2958 0.4712
v  0.6105 -0.1260 0.2001
v  0.6105 -0.1260 0.2806
v  0.1244 -0.2811 0.2806
v  0.5561 0.2757 0.2001
v  0.1244 -0.2811 0.2001
v  2.9877 0.6900 0.2847
v  2.9878 0.6901 0.2042
v  4.0024 0.3739 0.2175
v  3.9587 0.6962 0.2175
v  3.9587 0.6962 0.2632
v  0.0462 0.2958 0.2806
v  0.0462 0.2958 0.2001
v  3.0651 0.1131 0.2847
v  0.5561 0.2757 0.2806
v  3.0652 0.1131 0.2041
v  4.0024 0.3739 0.2632
v  0.1244 -0.2811 0.4712
v  0.3893 -0.4904 0.4712
v  0.6058 -0.1477 0.4712
v  0.2282 0.1955 0.4712
v  0.3893 -0.4904 0.2001
v  0.3893 -0.4904 0.2806
v  -0.0828 -0.2967 0.2806
v  0.6058 -0.1477 0.2001
v  -0.0828 -0.2967 0.2001
v  2.7349 -1.3933 0.2839
v  2.7350 -1.3933 0.2033
v  3.3089 -2.2877 0.2175
v  3.4826 -2.0127 0.2175
v  3.4826 -2.0127 0.2632
v  0.2282 0.1955 0.2806
v  0.2282 0.1955 0.2001
v  2.4233 -1.8851 0.2833
v  0.6058 -0.1477 0.2806
v  2.4234 -1.8850 0.2028
v  3.3089 -2.2877 0.2632
v  -0.0828 -0.2967 0.4712
v  -0.0144 -0.6273 0.4712
v  0.3718 -0.5039 0.4712
v  0.3030 0.0017 0.4712
v  -0.0144 -0.6273 0.2001
v  -0.0144 -0.6273 0.2806
v  -0.2515 -0.1755 0.2806
v  0.3718 -0.5039 0.2001
v  -0.2515 -0.1755 0.2001
v  1.2020 -2.8268 0.2815
v  1.2021 -2.8268 0.2010
v  1.0669 -3.8808 0.2175
v  1.3768 -3.7818 0.2175
v  1.3768 -3.7818 0.2632
v  0.3030 0.0017 0.2806
v  0.3030 0.0017 0.2001
v  0.6472 -3.0032 0.2807
v  0.3718 -0.5039 0.2806
v  0.6473 -3.0031 0.2002
v  1.0669 -3.8808 0.2632
v  -0.2515 -0.1755 0.4712
# 180 vertices

vn 0.0000 0.0000 1.0000
vn -0.9770 0.2132 -0.0000
vn 0.0000 0.0000 -1.0000
vn 0.9377 -0.3474 0.0011
vn -0.3792 -0.9253 -0.0000
vn 0.3792 0.9253 -0.0000
vn -0.0013 -0.0003 1.0000
vn -0.9104 0.4137 -0.0011
vn 0.0014 0.0005 -1.0000
vn 0.8456 -0.5338 -0.0000
vn -0.0061 -0.0149 0.9999
vn -0.9684 0.2495 -0.0000
vn -0.0079 -0.0192 -0.9998
vn 0.8692 -0.4945 -0.0000
vn -0.6114 0.7913 -0.0000
vn 0.4950 -0.8689 0.0004
vn -0.8853 -0.4651 -0.0000
vn 0.8853 0.4651 -0.0000
vn -0.0015 -0.0004 1.0000
vn -0.4315 0.9021 -0.0003
vn 0.0016 0.0004 -1.0000
vn 0.3047 -0.9524 -0.0000
vn -0.0125 -0.0066 0.9999
vn -0.5814 0.8136 -0.0000
vn -0.0197 -0.0103 -0.9998
vn 0.3479 -0.9375 -0.0000
vn 0.0403 0.9992 -0.0000
vn -0.1793 -0.9838 -0.0005
vn -0.9771 0.2128 -0.0000
vn 0.9771 -0.2128 -0.0000
vn -0.0016 -0.0002 1.0000
vn 0.2493 0.9684 0.0006
vn 0.0015 0.0002 -1.0000
vn -0.3788 -0.9255 -0.0000
vn -0.0137 0.0030 0.9999
vn 0.0776 0.9970 -0.0000
vn -0.0213 0.0046 -0.9998
vn -0.3361 -0.9418 -0.0000
vn 0.6732 0.7395 -0.0000
vn -0.7697 -0.6384 -0.0012
vn -0.6117 0.7911 -0.0000
vn 0.6117 -0.7911 -0.0000
vn -0.0015 -0.0001 1.0000
vn 0.8134 0.5816 0.0012
vn 0.0013 0.0002 -1.0000
vn -0.8851 -0.4655 -0.0000
vn -0.0097 0.0125 0.9999
vn 0.7004 0.7138 -0.0000
vn -0.0120 0.0155 -0.9998
vn -0.8628 -0.5055 -0.0000
vn 0.9910 0.1338 -0.0000
vn -1.0000 0.0058 -0.0013
vn 0.0399 0.9992 -0.0000
vn -0.0399 -0.9992 -0.0000
vn -0.0013 -0.0002 1.0000
vn 0.9970 -0.0773 0.0013
vn 0.0013 0.0004 -1.0000
vn -0.9772 0.2123 -0.0000
vn 0.0007 0.0187 0.9998
vn 0.9953 0.0966 -0.0000
vn 0.0007 0.0167 -0.9999
vn -0.9859 0.1674 -0.0000
vn 0.8452 -0.5345 -0.0000
vn -0.7623 0.6472 -0.0008
vn 0.6728 0.7398 -0.0000
vn -0.6728 -0.7398 -0.0000
vn -0.0014 -0.0004 1.0000
vn 0.7140 -0.7001 0.0008
vn 0.0015 0.0005 -1.0000
vn -0.6121 0.7908 -0.0000
vn 0.0143 0.0157 0.9998
vn 0.8246 -0.5657 -0.0000
vn 0.0097 0.0107 -0.9999
vn -0.6476 0.7619 -0.0000
vn 0.3038 -0.9527 -0.0000
vn -0.1680 0.9858 -0.0000
vn 0.9909 0.1342 -0.0000
vn -0.9909 -0.1342 -0.0000
vn -0.0016 -0.0003 1.0000
vn 0.0969 -0.9953 -0.0001
vn 0.0016 0.0003 -1.0000
vn 0.0394 0.9992 -0.0000
vn 0.0222 0.0030 0.9997
vn 0.2681 -0.9634 -0.0000
vn 0.0137 0.0019 -0.9999
vn -0.0064 1.0000 -0.0000
vn -0.3796 -0.9251 -0.0000
vn 0.5050 0.8631 0.0009
vn 0.8454 -0.5341 -0.0000
vn -0.8454 0.5341 -0.0000
vn -0.0016 -0.0001 1.0000
vn -0.5655 -0.8247 -0.0010
vn 0.6725 0.7401 -0.0000
vn 0.0181 -0.0115 0.9998
vn -0.4138 -0.9104 -0.0000
vn 0.0129 -0.0082 -0.9999
vn 0.6379 0.7701 -0.0000
vn -0.8855 -0.4647 -0.0000
vn 0.9416 0.3366 0.0013
vn 0.3043 -0.9526 -0.0000
vn -0.3043 0.9526 -0.0000
vn -0.0014 -0.0001 1.0000
vn -0.9633 -0.2683 -0.0013
vn 0.0013 0.0003 -1.0000
vn 0.9909 0.1347 -0.0000
vn 0.0058 -0.0181 0.9998
vn -0.9022 -0.4314 -0.0000
vn 0.0055 -0.0171 -0.9998
vn 0.9837 0.1799 -0.0000
vn 0.9377 -0.3474 -0.0000
vn -0.0004 -0.0010 1.0000
vn -0.9104 0.4137 -0.0000
vn 0.0003 0.0007 -1.0000
vn -0.0070 -0.0140 0.9999
vn -0.9684 0.2495 -0.0012
vn -0.0067 -0.0191 -0.9998
vn 0.8692 -0.4945 0.0010
vn 0.4950 -0.8689 -0.0000
vn -0.0014 -0.0008 1.0000
vn -0.4315 0.9021 -0.0000
vn 0.0014 0.0007 -1.0000
vn -0.0126 -0.0061 0.9999
vn -0.5814 0.8136 -0.0006
vn -0.0194 -0.0106 -0.9998
vn 0.3480 -0.9375 0.0002
vn -0.1793 -0.9838 -0.0000
vn -0.0014 0.0003 1.0000
vn 0.2493 0.9684 -0.0000
vn 0.0015 -0.0003 -1.0000
vn -0.0141 0.0025 0.9999
vn 0.0776 0.9970 0.0004
vn -0.0214 0.0052 -0.9998
vn -0.3361 -0.9418 -0.0007
vn -0.7697 -0.6384 -0.0000
vn -0.0004 0.0005 1.0000
vn 0.8135 0.5816 -0.0000
vn 0.0005 -0.0007 -1.0000
vn -0.0110 0.0123 0.9999
vn 0.7003 0.7138 0.0011
vn -0.0114 0.0167 -0.9998
vn -0.8629 -0.5054 -0.0013
vn -1.0000 0.0057 -0.0000
vn 0.0000 -0.0005 1.0000
vn 0.9970 -0.0774 -0.0000
vn 0.0000 0.0002 -1.0000
vn -0.0005 0.0193 0.9998
vn 0.9953 0.0967 0.0013
vn 0.0020 0.0172 -0.9998
vn -0.9859 0.1675 -0.0012
vn -0.7624 0.6472 -0.0000
vn -0.0010 -0.0011 1.0000
vn 0.7140 -0.7001 -0.0000
vn 0.0008 0.0009 -1.0000
vn 0.0140 0.0165 0.9998
vn 0.8246 -0.5657 0.0009
vn 0.0106 0.0104 -0.9999
vn -0.6476 0.7620 -0.0007
vn 0.0969 -0.9953 -0.0000
vn 0.0017 0.0002 -1.0000
vn 0.0221 0.0029 0.9998
vn 0.2681 -0.9634 0.0001
vn -0.0064 1.0000 0.0002
vn 0.5050 0.8631 -0.0000
vn -0.0009 0.0006 1.0000
vn -0.5655 -0.8248 -0.0000
vn 0.0011 -0.0007 -1.0000
vn 0.0173 -0.0120 0.9998
vn -0.4139 -0.9103 -0.0008
vn 0.0130 -0.0072 -0.9999
vn 0.6379 0.7701 0.0010
vn 0.9417 0.3366 -0.0000
vn -0.9633 -0.2683 -0.0000
vn 0.0001 -0.0003 -1.0000
vn 0.0043 -0.0179 0.9998
vn -0.9022 -0.4313 -0.0013
vn 0.0065 -0.0161 -0.9998
vn 0.9837 0.1800 0.0013
# 177 vertex normals

vt 0.7840 0.3876 0.0000
vt 0.7590 0.3876 0.0000
vt 0.7590 0.3840 0.0000
vt 0.7840 0.4090 0.0000
vt 0.7590 0.4090 0.0000
vt 0.7840 0.3840 0.0000
# 6 texture coords

o Propeller
g Propeller
usemtl Palette
s off
f 1/1/1 2/2/1 3/3/1 
f 4/1/2 5/2/2 6/3/2 
f 7/1/3 4/2/3 8/3/3 
f 9/4/4 10/5/4 7/2/4 
f 11/4/5 12/5/5 13/3/5 
f 6/4/6 14/5/6 15/3/6 
f 16/4/7 9/5/7 17/2/7 
f 18/4/8 16/5/8 5/2/8 
f 10/4/9 18/5/9 4/2/9 
f 15/3/10 14/6/10 17/1/10 
f 19/6/11 13/3/11 9/3/11 
f 11/4/12 19/6/12 16/6/12 
f 12/5/13 11/4/13 18/4/13 
f 13/3/14 12/5/14 10/5/14 
f 20/6/6 3/3/6 14/3/6 
f 1/1/2 20/6/2 6/6/2 
f 2/2/5 1/1/5 5/1/5 
f 3/3/10 2/2/10 17/2/10 
f 21/1/1 22/2/1 23/3/1 
f 24/1/15 25/2/15 26/3/15 
f 27/1/3 24/2/3 28/3/3 
f 29/4/16 30/5/16 27/2/16 
f 31/4/17 32/5/17 33/3/17 
f 26/4/18 34/5/18 35/3/18 
f 36/4/19 29/5/19 37/2/19 
f 38/4/20 36/5/20 25/2/20 
f 30/4/21 38/5/21 24/2/21 
f 35/3/22 34/6/22 37/1/22 
f 39/6/23 33/3/23 29/3/23 
f 31/4/24 39/6/24 36/6/24 
f 32/5/25 31/4/25 38/4/25 
f 33/3/26 32/5/26 30/5/26 
f 40/6/18 23/3/18 34/3/18 
f 21/1/15 40/6/15 26/6/15 
f 22/2/17 21/1/17 25/1/17 
f 23/3/22 22/2/22 37/2/22 
f 41/1/1 42/2/1 43/3/1 
f 44/1/27 45/2/27 46/3/27 
f 47/1/3 44/2/3 48/3/3 
f 49/4/28 50/5/28 47/2/28 
f 51/4/29 52/5/29 53/3/29 
f 46/4/30 54/5/30 55/3/30 
f 56/4/31 49/5/31 57/2/31 
f 58/4/32 56/5/32 45/2/32 
f 50/4/33 58/5/33 44/2/33 
f 55/3/34 54/6/34 57/1/34 
f 59/6/35 53/3/35 49/3/35 
f 51/4/36 59/6/36 56/6/36 
f 52/5/37 51/4/37 58/4/37 
f 53/3/38 52/5/38 50/5/38 
f 60/6/30 43/3/30 54/3/30 
f 41/1/27 60/6/27 46/6/27 
f 42/2/29 41/1/29 45/1/29 
f 43/3/34 42/2/34 57/2/34 
f 61/1/1 62/2/1 63/3/1 
f 64/1/39 65/2/39 66/3/39 
f 67/1/3 64/2/3 68/3/3 
f 69/4/40 70/5/40 67/2/40 
f 71/4/41 72/5/41 73/3/41 
f 66/4/42 74/5/42 75/3/42 
f 76/4/43 69/5/43 77/2/43 
f 78/4/44 76/5/44 65/2/44 
f 70/4/45 78/5/45 64/2/45 
f 75/3/46 74/6/46 77/1/46 
f 79/6/47 73/3/47 69/3/47 
f 71/4/48 79/6/48 76/6/48 
f 72/5/49 71/4/49 78/4/49 
f 73/3/50 72/5/50 70/5/50 
f 80/6/42 63/3/42 74/3/42 
f 61/1/39 80/6/39 66/6/39 
f 62/2/41 61/1/41 65/1/41 
f 63/3/46 62/2/46 77/2/46 
f 81/1/1 82/2/1 83/3/1 
f 84/1/51 85/2/51 86/3/51 
f 87/1/3 84/2/3 88/3/3 
f 89/4/52 90/5/52 87/2/52 
f 91/4/53 92/5/53 93/3/53 
f 86/4/54 94/5/54 95/3/54 
f 96/4/55 89/5/55 97/2/55 
f 98/4/56 96/5/56 85/2/56 
f 90/4/57 98/5/57 84/2/57 
f 95/3/58 94/6/58 97/1/58 
f 99/6/59 93/3/59 89/3/59 
f 91/4/60 99/6/60 96/6/60 
f 92/5/61 91/4/61 98/4/61 
f 93/3/62 92/5/62 90/5/62 
f 100/6/54 83/3/54 94/3/54 
f 81/1/51 100/6/51 86/6/51 
f 82/2/53 81/1/53 85/1/53 
f 83/3/58 82/2/58 97/2/58 
f 101/1/1 102/2/1 103/3/1 
f 104/1/63 105/2/63 106/3/63 
f 107/1/3 104/2/3 108/3/3 
f 109/4/64 110/5/64 107/2/64 
f 111/4/65 112/5/65 113/3/65 
f 106/4/66 114/5/66 115/3/66 
f 116/4/67 109/5/67 117/2/67 
f 118/4/68 116/5/68 105/2/68 
f 110/4/69 118/5/69 104/2/69 
f 115/3/70 114/6/70 117/1/70 
f 119/6/71 113/3/71 109/3/71 
f 111/4/72 119/6/72 116/6/72 
f 112/5/73 111/4/73 118/4/73 
f 113/3/74 112/5/74 110/5/74 
f 120/6/66 103/3/66 114/3/66 
f 101/1/63 120/6/63 106/6/63 
f 102/2/65 101/1/65 105/1/65 
f 103/3/70 102/2/70 117/2/70 
f 121/1/1 122/2/1 123/3/1 
f 124/1/75 125/2/75 126/3/75 
f 127/1/3 124/2/3 128/3/3 
f 129/4/76 130/5/76 127/2/76 
f 131/4/77 132/5/77 133/3/77 
f 126/4/78 134/5/78 135/3/78 
f 136/4/79 129/5/79 137/2/79 
f 138/4/80 136/5/80 125/2/80 
f 130/4/81 138/5/81 124/2/81 
f 135/3/82 134/6/82 137/1/82 
f 139/6/83 133/3/83 129/3/83 
f 131/4/84 139/6/84 136/6/84 
f 132/5/85 131/4/85 138/4/85 
f 133/3/86 132/5/86 130/5/86 
f 140/6/78 123/3/78 134/3/78 
f 121/1/75 140/6/75 126/6/75 
f 122/2/77 121/1/77 125/1/77 
f 123/3/82 122/2/82 137/2/82 
f 141/1/1 142/2/1 143/3/1 
f 144/1/87 145/2/87 146/3/87 
f 147/1/3 144/2/3 148/3/3 
f 149/4/88 150/5/88 147/2/88 
f 151/4/89 152/5/89 153/3/89 
f 146/4/90 154/5/90 155/3/90 
f 156/4/91 149/5/91 157/2/91 
f 158/4/92 156/5/92 145/2/92 
f 150/4/33 158/5/33 144/2/33 
f 155/3/93 154/6/93 157/1/93 
f 159/6/94 153/3/94 149/3/94 
f 151/4/95 159/6/95 156/6/95 
f 152/5/96 151/4/96 158/4/96 
f 153/3/97 152/5/97 150/5/97 
f 160/6/90 143/3/90 154/3/90 
f 141/1/87 160/6/87 146/6/87 
f 142/2/89 141/1/89 145/1/89 
f 143/3/93 142/2/93 157/2/93 
f 161/1/1 162/2/1 163/3/1 
f 164/1/98 165/2/98 166/3/98 
f 167/1/3 164/2/3 168/3/3 
f 169/4/99 170/5/99 167/2/99 
f 171/4/100 172/5/100 173/3/100 
f 166/4/101 174/5/101 175/3/101 
f 176/4/102 169/5/102 177/2/102 
f 178/4/103 176/5/103 165/2/103 
f 170/4/104 178/5/104 164/2/104 
f 175/3/105 174/6/105 177/1/105 
f 179/6/106 173/3/106 169/3/106 
f 171/4/107 179/6/107 176/6/107 
f 172/5/108 171/4/108 178/4/108 
f 173/3/109 172/5/109 170/5/109 
f 180/6/101 163/3/101 174/3/101 
f 161/1/98 180/6/98 166/6/98 
f 162/2/100 161/1/100 165/1/100 
f 163/3/105 162/2/105 177/2/105 
f 20/6/1 1/1/1 3/3/1 
f 8/6/2 4/1/2 6/3/2 
f 15/6/3 7/1/3 8/3/3 
f 17/1/110 9/4/110 7/2/110 
f 19/6/5 11/4/5 13/3/5 
f 8/6/6 6/4/6 15/3/6 
f 5/1/111 16/4/111 17/2/111 
f 4/1/112 18/4/112 5/2/112 
f 7/1/113 10/4/113 4/2/113 
f 7/2/10 15/3/10 17/1/10 
f 16/6/114 19/6/114 9/3/114 
f 18/4/115 11/4/115 16/6/115 
f 10/5/116 12/5/116 18/4/116 
f 9/3/117 13/3/117 10/5/117 
f 6/6/6 20/6/6 14/3/6 
f 5/1/2 1/1/2 6/6/2 
f 17/2/5 2/2/5 5/1/5 
f 14/3/10 3/3/10 17/2/10 
f 40/6/1 21/1/1 23/3/1 
f 28/6/15 24/1/15 26/3/15 
f 35/6/3 27/1/3 28/3/3 
f 37/1/118 29/4/118 27/2/118 
f 39/6/17 31/4/17 33/3/17 
f 28/6/18 26/4/18 35/3/18 
f 25/1/119 36/4/119 37/2/119 
f 24/1/120 38/4/120 25/2/120 
f 27/1/121 30/4/121 24/2/121 
f 27/2/22 35/3/22 37/1/22 
f 36/6/122 39/6/122 29/3/122 
f 38/4/123 31/4/123 36/6/123 
f 30/5/124 32/5/124 38/4/124 
f 29/3/125 33/3/125 30/5/125 
f 26/6/18 40/6/18 34/3/18 
f 25/1/15 21/1/15 26/6/15 
f 37/2/17 22/2/17 25/1/17 
f 34/3/22 23/3/22 37/2/22 
f 60/6/1 41/1/1 43/3/1 
f 48/6/27 44/1/27 46/3/27 
f 55/6/3 47/1/3 48/3/3 
f 57/1/126 49/4/126 47/2/126 
f 59/6/29 51/4/29 53/3/29 
f 48/6/30 46/4/30 55/3/30 
f 45/1/127 56/4/127 57/2/127 
f 44/1/128 58/4/128 45/2/128 
f 47/1/129 50/4/129 44/2/129 
f 47/2/34 55/3/34 57/1/34 
f 56/6/130 59/6/130 49/3/130 
f 58/4/131 51/4/131 56/6/131 
f 50/5/132 52/5/132 58/4/132 
f 49/3/133 53/3/133 50/5/133 
f 46/6/30 60/6/30 54/3/30 
f 45/1/27 41/1/27 46/6/27 
f 57/2/29 42/2/29 45/1/29 
f 54/3/34 43/3/34 57/2/34 
f 80/6/1 61/1/1 63/3/1 
f 68/6/39 64/1/39 66/3/39 
f 75/6/3 67/1/3 68/3/3 
f 77/1/134 69/4/134 67/2/134 
f 79/6/41 71/4/41 73/3/41 
f 68/6/42 66/4/42 75/3/42 
f 65/1/135 76/4/135 77/2/135 
f 64/1/136 78/4/136 65/2/136 
f 67/1/137 70/4/137 64/2/137 
f 67/2/46 75/3/46 77/1/46 
f 76/6/138 79/6/138 69/3/138 
f 78/4/139 71/4/139 76/6/139 
f 70/5/140 72/5/140 78/4/140 
f 69/3/141 73/3/141 70/5/141 
f 66/6/42 80/6/42 74/3/42 
f 65/1/39 61/1/39 66/6/39 
f 77/2/41 62/2/41 65/1/41 
f 74/3/46 63/3/46 77/2/46 
f 100/6/1 81/1/1 83/3/1 
f 88/6/51 84/1/51 86/3/51 
f 95/6/3 87/1/3 88/3/3 
f 97/1/142 89/4/142 87/2/142 
f 99/6/53 91/4/53 93/3/53 
f 88/6/54 86/4/54 95/3/54 
f 85/1/143 96/4/143 97/2/143 
f 84/1/144 98/4/144 85/2/144 
f 87/1/145 90/4/145 84/2/145 
f 87/2/58 95/3/58 97/1/58 
f 96/6/146 99/6/146 89/3/146 
f 98/4/147 91/4/147 96/6/147 
f 90/5/148 92/5/148 98/4/148 
f 89/3/149 93/3/149 90/5/149 
f 86/6/54 100/6/54 94/3/54 
f 85/1/51 81/1/51 86/6/51 
f 97/2/53 82/2/53 85/1/53 
f 94/3/58 83/3/58 97/2/58 
f 120/6/1 101/1/1 103/3/1 
f 108/6/63 104/1/63 106/3/63 
f 115/6/3 107/1/3 108/3/3 
f 117/1/150 109/4/150 107/2/150 
f 119/6/65 111/4/65 113/3/65 
f 108/6/66 106/4/66 115/3/66 
f 105/1/151 116/4/151 117/2/151 
f 104/1/152 118/4/152 105/2/152 
f 107/1/153 110/4/153 104/2/153 
f 107/2/70 115/3/70 117/1/70 
f 116/6/154 119/6/154 109/3/154 
f 118/4/155 111/4/155 116/6/155 
f 110/5/156 112/5/156 118/4/156 
f 109/3/157 113/3/157 110/5/157 
f 106/6/66 120/6/66 114/3/66 
f 105/1/63 101/1/63 106/6/63 
f 117/2/65 102/2/65 105/1/65 
f 114/3/70 103/3/70 117/2/70 
f 140/6/1 121/1/1 123/3/1 
f 128/6/75 124/1/75 126/3/75 
f 135/6/3 127/1/3 128/3/3 
f 137/1/76 129/4/76 127/2/76 
f 139/6/77 131/4/77 133/3/77 
f 128/6/78 126/4/78 135/3/78 
f 125/1/31 136/4/31 137/2/31 
f 124/1/158 138/4/158 125/2/158 
f 127/1/159 130/4/159 124/2/159 
f 127/2/82 135/3/82 137/1/82 
f 136/6/160 139/6/160 129/3/160 
f 138/4/161 131/4/161 136/6/161 
f 130/5/85 132/5/85 138/4/85 
f 129/3/162 133/3/162 130/5/162 
f 126/6/78 140/6/78 134/3/78 
f 125/1/75 121/1/75 126/6/75 
f 137/2/77 122/2/77 125/1/77 
f 134/3/82 123/3/82 137/2/82 
f 160/6/1 141/1/1 143/3/1 
f 148/6/87 144/1/87 146/3/87 
f 155/6/3 147/1/3 148/3/3 
f 157/1/163 149/4/163 147/2/163 
f 159/6/89 151/4/89 153/3/89 
f 148/6/90 146/4/90 155/3/90 
f 145/1/164 156/4/164 157/2/164 
f 144/1/165 158/4/165 145/2/165 
f 147/1/166 150/4/166 144/2/166 
f 147/2/93 155/3/93 157/1/93 
f 156/6/167 159/6/167 149/3/167 
f 158/4/168 151/4/168 156/6/168 
f 150/5/169 152/5/169 158/4/169 
f 149/3/170 153/3/170 150/5/170 
f 146/6/90 160/6/90 154/3/90 
f 145/1/87 141/1/87 146/6/87 
f 157/2/89 142/2/89 145/1/89 
f 154/3/93 143/3/93 157/2/93 
f 180/6/1 161/1/1 163/3/1 
f 168/6/98 164/1/98 166/3/98 
f 175/6/3 167/1/3 168/3/3 
f 177/1/171 169/4/171 167/2/171 
f 179/6/100 171/4/100 173/3/100 
f 168/6/101 166/4/101 175/3/101 
f 165/1/1 176/4/1 177/2/1 
f 164/1/172 178/4/172 165/2/172 
f 167/1/173 170/4/173 164/2/173 
f 167/2/105 175/3/105 177/1/105 
f 176/6/174 179/6/174 169/3/174 
f 178/4/175 171/4/175 176/6/175 
f 170/5/176 172/5/176 178/4/176 
f 169/3/177 173/3/177 170/5/177 
f 166/6/101 180/6/101 174/3/101 
f 165/1/98 161/1/98 166/6/98 
f 177/2/100 162/2/100 165/1/100 
f 174/3/105 163/3/105 177/2/105 
# 324 faces

