# 3ds Max Wavefront OBJ Exporter v0.99 - (c)2007 guruware
# File Created: 21.05.2022 19:29:26

mtllib helicopter_propeller_front.mtl

#
# object Propeller_2
#

v  1.1401 -1.5887 1.5037
v  0.2023 -1.5625 1.9401
v  -0.1428 -1.5528 -0.0288
v  1.1714 -0.4715 1.5037
v  0.2336 -0.4452 1.9401
v  -2.1109 -1.4977 0.3164
v  -2.0197 -1.5002 -0.7143
v  1.7342 -1.6054 0.6567
v  1.7655 -0.4881 0.6567
v  -2.0796 -0.3804 0.3164
v  -1.9884 -0.3829 -0.7143
v  1.8254 -1.6079 -0.3740
v  1.8567 -0.4906 -0.3740
v  -1.6747 -1.5099 1.2546
v  1.3892 -1.5957 -1.3122
v  1.4205 -0.4784 -1.3122
v  -1.6434 -0.3926 1.2546
v  0.5425 -1.5720 -1.9065
v  0.5738 -0.4547 -1.9065
v  -0.8280 -1.5336 1.8489
v  -0.4878 -1.5431 -1.9977
v  -0.4565 -0.4258 -1.9977
v  -0.7967 -0.4163 1.8489
v  -1.4257 -1.5169 -1.5613
v  -1.3944 -0.3996 -1.5613
v  0.8703 -0.3586 1.1405
v  0.1548 -0.3386 1.4735
v  -0.6314 -0.3165 1.4039
v  1.3236 -0.3713 0.4943
v  -1.2774 -0.2984 0.9505
v  1.3932 -0.3732 -0.2922
v  -1.6102 -0.2891 0.2346
v  1.0603 -0.3639 -1.0080
v  -1.5407 -0.2911 -0.5518
v  0.4143 -0.3458 -1.4615
v  -1.0874 -0.3038 -1.1981
v  -0.3718 -0.3238 -1.5310
v  20.0217 -0.6448 41.3291
v  19.1687 -0.6210 41.7259
v  19.1659 -0.7236 41.7259
v  0.1659 0.0589 1.4735
v  -0.6202 0.0809 1.4039
v  1.3347 0.0262 0.4943
v  0.8815 0.0389 1.1405
v  -1.2662 0.0990 0.9505
v  1.4043 0.0242 -0.2922
v  -41.4834 1.0781 19.6747
v  -41.9916 1.0924 18.5815
v  -41.9945 0.9897 18.5815
v  41.9069 -1.2819 -19.9975
v  42.0634 -1.2863 -19.6609
v  42.0619 -1.3410 -19.6609
v  -1.5991 0.1084 0.2346
v  -1.5295 0.1064 -0.5518
v  0.4254 0.0516 -1.4615
v  1.0715 0.0335 -1.0080
v  -1.0763 0.0937 -1.1981
v  -0.3607 0.0737 -1.5310
v  -19.6843 0.4331 -42.0721
v  -19.0113 0.4143 -42.3852
v  -19.0123 0.3803 -42.3852
v  1.2610 0.1258 1.5907
v  0.2700 0.1536 2.0519
v  -0.8188 0.1841 1.9555
v  1.8888 0.1082 0.6956
v  -1.7135 0.2092 1.3275
v  1.9852 0.1056 -0.3936
v  -2.1745 0.2221 0.3360
v  1.5242 0.1185 -1.3850
v  -2.0782 0.2194 -0.7532
v  0.6295 0.1435 -2.0131
v  -1.4504 0.2018 -1.6483
v  -0.4593 0.1740 -2.1094
v  1.1493 0.8346 1.4336
v  0.2544 0.8597 1.8500
v  -0.7288 0.8872 1.7630
v  1.7162 0.8188 0.6254
v  -1.5367 0.9099 1.1959
v  1.8032 0.8163 -0.3582
v  -1.9530 0.9215 0.3006
v  1.3869 0.8280 -1.2535
v  -1.8660 0.9191 -0.6829
v  0.5790 0.8506 -1.8206
v  -1.2991 0.9032 -1.4912
v  -0.4042 0.8782 -1.9076
v  0.3008 1.2037 0.4085
v  0.0332 1.2112 0.5330
v  -0.2608 1.2194 0.5070
v  0.4703 1.1989 0.1668
v  -0.5023 1.2262 0.3374
v  0.4963 1.1982 -0.1273
v  -0.6268 1.2297 0.0697
v  0.3718 1.2017 -0.3950
v  -0.6008 1.2289 -0.2244
v  0.1303 1.2085 -0.5645
v  -0.4313 1.2242 -0.4660
v  -0.1637 1.2167 -0.5905
v  6.1352 -0.6294 11.3049
v  4.6494 -0.5878 11.9015
v  6.1533 0.0145 11.3049
v  4.6675 0.0562 11.9015
v  -41.4862 0.9755 19.6747
v  -12.1932 0.0459 4.7804
v  -11.7155 0.3533 6.0781
v  -11.7244 0.0327 6.0781
v  -12.1842 0.3664 4.7804
v  13.0272 -0.6489 -6.8354
v  13.3163 -0.6570 -5.7068
v  13.0355 -0.3519 -6.8354
v  13.3246 -0.3600 -5.7068
v  -19.6853 0.3991 -42.0721
v  -3.8650 -0.1878 -10.1119
v  -5.3883 0.1764 -9.7430
v  -5.3973 -0.1449 -9.7430
v  -3.8560 0.1335 -10.1119
v  20.0188 -0.7475 41.3291
v  41.9054 -1.3366 -19.9975
# 117 vertices

vn -0.0280 -0.9996 -0.0000
vn 0.4216 -0.0118 0.9067
vn 0.8183 -0.0229 0.5744
vn -0.9957 0.0279 -0.0881
vn 0.9957 -0.0279 0.0881
vn 0.9064 -0.0254 -0.4217
vn -0.9064 0.0254 0.4217
vn 0.5741 -0.0161 -0.8186
vn 0.0881 -0.0025 -0.9961
vn -0.5741 0.0161 0.8186
vn -0.4216 0.0118 -0.9067
vn -0.8183 0.0229 -0.5744
vn -0.0881 0.0025 0.9961
vn 0.1211 0.9719 0.2016
vn 0.0077 0.9751 0.2215
vn 0.2093 0.9695 0.1277
vn -0.1004 0.9782 0.1820
vn 0.2487 0.9684 0.0196
vn -0.1743 0.9802 0.0938
vn 0.2289 0.9689 -0.0938
vn -0.1941 0.9808 -0.0196
vn 0.1550 0.9710 -0.1820
vn -0.1547 0.9797 -0.1277
vn 0.0469 0.9740 -0.2215
vn -0.0665 0.9772 -0.2016
vn 0.0439 -0.9871 0.1537
vn -0.0425 -0.9847 0.1689
vn 0.1111 -0.9890 0.0974
vn -0.1249 -0.9824 0.1388
vn 0.1412 -0.9899 0.0149
vn -0.1812 -0.9808 0.0715
vn 0.1260 -0.9894 -0.0715
vn -0.1964 -0.9804 -0.0149
vn 0.0697 -0.9879 -0.1388
vn -0.1663 -0.9813 -0.0974
vn -0.0127 -0.9856 -0.1689
vn -0.0991 -0.9831 -0.1537
vn 0.4135 0.2587 0.8730
vn -0.0772 0.2724 0.9591
vn 0.7954 0.2480 0.5530
vn -0.5452 0.2855 0.7882
vn 0.9663 0.2432 0.0848
vn -0.8651 0.2945 0.4061
vn 0.8802 0.2456 -0.4061
vn -0.9511 0.2969 -0.0848
vn 0.5604 0.2546 -0.7882
vn -0.7803 0.2921 -0.5530
vn 0.0924 0.2677 -0.9591
vn -0.3983 0.2814 -0.8730
vn 0.1359 0.9627 0.2341
vn 0.0043 0.9664 0.2572
vn 0.2383 0.9598 0.1483
vn -0.1212 0.9699 0.2113
vn 0.2841 0.9585 0.0228
vn -0.2069 0.9723 0.1089
vn 0.2611 0.9592 -0.1089
vn -0.2300 0.9729 -0.0228
vn 0.1753 0.9616 -0.2113
vn -0.1842 0.9716 -0.1483
vn 0.0498 0.9651 -0.2572
vn -0.0818 0.9688 -0.2341
vn 0.0280 0.9996 -0.0000
vn -0.0320 -0.9994 -0.0101
vn 0.8874 -0.0249 -0.4603
vn 0.0315 0.9995 0.0074
vn -0.8988 0.0252 0.4376
vn -0.0310 -0.9995 0.0014
vn 0.4403 -0.0123 0.8978
vn 0.0249 0.9997 0.0011
vn -0.4199 0.0118 -0.9075
vn -0.0242 -0.9997 -0.0010
vn -0.4375 0.0123 -0.8991
vn 0.0315 0.9995 -0.0016
vn 0.4364 -0.0122 0.8997
vn -0.0297 -0.9996 -0.0037
vn -0.8924 0.0250 0.4506
vn 0.0270 0.9996 -0.0040
vn 0.9048 -0.0253 -0.4251
vn -0.0246 -0.9997 0.0074
vn 0.9073 -0.0254 -0.4197
vn 0.0234 0.9997 -0.0098
vn -0.9178 0.0257 0.3962
vn -0.0246 -0.9997 -0.0016
vn -0.4145 0.0116 -0.9100
vn 0.4132 -0.0116 0.9106
vn -0.0297 -0.9996 -0.0036
vn -0.9142 0.0256 0.4045
vn 0.0263 0.9996 -0.0037
vn 0.9257 -0.0259 -0.3773
vn 0.4152 -0.0116 0.9097
vn 0.0250 0.9997 0.0014
vn -0.3943 0.0110 -0.9189
vn -0.0325 -0.9994 -0.0098
vn 0.0310 0.9995 0.0076
vn -0.0311 -0.9995 0.0011
vn 0.0318 0.9995 -0.0010
vn -0.0290 -0.9996 -0.0040
vn -0.0249 -0.9997 0.0076
vn 0.0240 0.9997 -0.0100
vn 0.0317 0.9995 -0.0010
# 100 vertex normals

vt 0.8766 0.0299 0.0000
vt 0.8781 0.0352 0.0000
vt 0.8675 0.0352 0.0000
vt 0.0907 0.6922 0.0000
vt 0.0945 0.6922 0.0000
vt 0.0945 0.7372 0.0000
vt 0.8675 0.0457 0.0000
vt 0.8623 0.0443 0.0000
vt 0.8728 0.0260 0.0000
vt 0.0870 0.6922 0.0000
vt 0.0907 0.7372 0.0000
vt 0.0607 0.6922 0.0000
vt 0.0645 0.6922 0.0000
vt 0.0645 0.7372 0.0000
vt 0.8675 0.0246 0.0000
vt 0.0832 0.6922 0.0000
vt 0.0870 0.7372 0.0000
vt 0.8728 0.0443 0.0000
vt 0.8623 0.0260 0.0000
vt 0.0795 0.6922 0.0000
vt 0.0832 0.7372 0.0000
vt 0.0570 0.6922 0.0000
vt 0.0607 0.7372 0.0000
vt 0.8584 0.0299 0.0000
vt 0.0757 0.6922 0.0000
vt 0.0795 0.7372 0.0000
vt 0.8766 0.0404 0.0000
vt 0.8570 0.0352 0.0000
vt 0.0720 0.6922 0.0000
vt 0.0757 0.7372 0.0000
vt 0.0532 0.6922 0.0000
vt 0.0570 0.7372 0.0000
vt 0.8584 0.0404 0.0000
vt 0.0682 0.6922 0.0000
vt 0.0720 0.7372 0.0000
vt 0.0682 0.7372 0.0000
vt 0.0495 0.6922 0.0000
vt 0.0532 0.7372 0.0000
vt 0.0495 0.7372 0.0000
vt 0.8570 0.0457 0.0000
vt 0.8570 0.0246 0.0000
vt 0.8781 0.0246 0.0000
vt 0.0585 0.7432 0.0000
vt 0.0585 0.6982 0.0000
vt 0.1035 0.6982 0.0000
vt 0.0810 0.6982 0.0000
vt 0.0697 0.7012 0.0000
vt 0.0615 0.7095 0.0000
vt 0.1005 0.7095 0.0000
vt 0.0922 0.7012 0.0000
vt 0.1005 0.7320 0.0000
vt 0.0697 0.7402 0.0000
vt 0.0922 0.7402 0.0000
vt 0.1035 0.7207 0.0000
vt 0.0810 0.7432 0.0000
vt 0.0585 0.7207 0.0000
vt 0.0615 0.7320 0.0000
vt 0.8644 0.0390 0.0000
vt 0.8759 0.0390 0.0000
vt 0.8727 0.0457 0.0000
vt 0.8727 0.0246 0.0000
vt 0.8654 0.0499 0.0000
vt 0.8654 0.0288 0.0000
vt 0.8811 0.0288 0.0000
vt 0.8781 0.0457 0.0000
vt 0.8726 0.0246 0.0000
vt 0.8726 0.0457 0.0000
vt 0.8719 0.0457 0.0000
vt 0.8719 0.0246 0.0000
vt 0.8736 0.0246 0.0000
vt 0.8736 0.0457 0.0000
vt 0.8865 0.0288 0.0000
vt 0.1035 0.7432 0.0000
# 73 texture coords

o Propeller_2
g Propeller_2
usemtl Palette
s off
f 1/1/1 2/2/1 3/3/1 
f 4/4/2 5/5/2 2/6/2 
f 6/7/1 7/8/1 3/3/1 
f 8/9/1 1/1/1 3/3/1 
f 9/10/3 4/4/3 1/11/3 
f 10/12/4 11/13/4 7/14/4 
f 12/15/1 8/9/1 3/3/1 
f 13/16/5 9/10/5 8/17/5 
f 14/18/1 6/7/1 3/3/1 
f 15/19/1 12/15/1 3/3/1 
f 16/20/6 13/16/6 12/21/6 
f 17/22/7 10/12/7 6/23/7 
f 18/24/1 15/19/1 3/3/1 
f 19/25/8 16/20/8 15/26/8 
f 20/27/1 14/18/1 3/3/1 
f 21/28/1 18/24/1 3/3/1 
f 22/29/9 19/25/9 18/30/9 
f 23/31/10 17/22/10 14/32/10 
f 24/33/1 21/28/1 3/3/1 
f 25/34/11 22/29/11 21/35/11 
f 2/2/1 20/27/1 3/3/1 
f 7/8/1 24/33/1 3/3/1 
f 11/13/12 25/34/12 24/36/12 
f 5/37/13 23/31/13 20/38/13 
f 26/39/14 27/37/14 5/5/14 
f 27/39/15 28/37/15 23/5/15 
f 29/39/16 26/37/16 4/5/16 
f 28/39/17 30/37/17 17/5/17 
f 31/39/18 29/37/18 9/5/18 
f 30/39/19 32/37/19 10/5/19 
f 33/39/20 31/37/20 13/5/20 
f 32/39/21 34/37/21 11/5/21 
f 35/39/22 33/37/22 16/5/22 
f 34/39/23 36/37/23 25/5/23 
f 37/39/24 35/37/24 19/5/24 
f 36/39/25 37/37/25 22/5/25 
f 38/40/2 39/41/2 40/42/2 
f 41/40/13 42/41/13 28/42/13 
f 43/40/3 44/41/3 26/42/3 
f 42/40/10 45/41/10 30/42/10 
f 46/40/5 43/41/5 29/42/5 
f 47/40/7 48/41/7 49/42/7 
f 50/40/6 51/41/6 52/42/6 
f 53/40/4 54/41/4 34/42/4 
f 55/40/8 56/41/8 33/42/8 
f 54/40/12 57/41/12 36/42/12 
f 58/40/9 55/41/9 35/42/9 
f 59/40/11 60/41/11 61/42/11 
f 62/40/26 63/41/26 41/42/26 
f 63/40/27 64/41/27 42/42/27 
f 65/40/28 62/41/28 44/42/28 
f 64/40/29 66/41/29 45/42/29 
f 67/40/30 65/41/30 43/42/30 
f 66/40/31 68/41/31 53/42/31 
f 69/40/32 67/41/32 46/42/32 
f 68/40/33 70/41/33 54/42/33 
f 71/40/34 69/41/34 56/42/34 
f 70/40/35 72/41/35 57/42/35 
f 73/40/36 71/41/36 55/42/36 
f 72/40/37 73/41/37 58/42/37 
f 74/43/38 75/44/38 63/45/38 
f 75/43/39 76/44/39 64/45/39 
f 77/43/40 74/44/40 62/45/40 
f 76/43/41 78/44/41 66/45/41 
f 79/43/42 77/44/42 65/45/42 
f 78/43/43 80/44/43 68/45/43 
f 81/43/44 79/44/44 67/45/44 
f 80/43/45 82/44/45 70/45/45 
f 83/43/46 81/44/46 69/45/46 
f 82/43/47 84/44/47 72/45/47 
f 85/43/48 83/44/48 71/45/48 
f 84/43/49 85/44/49 73/45/49 
f 86/43/50 87/44/50 75/45/50 
f 87/43/51 88/44/51 76/45/51 
f 89/43/52 86/44/52 74/45/52 
f 88/43/53 90/44/53 78/45/53 
f 91/43/54 89/44/54 77/45/54 
f 90/43/55 92/44/55 80/45/55 
f 93/43/56 91/44/56 79/45/56 
f 92/43/57 94/44/57 82/45/57 
f 95/43/58 93/44/58 81/45/58 
f 94/43/59 96/44/59 84/45/59 
f 97/43/60 95/44/60 83/45/60 
f 96/43/61 97/44/61 85/45/61 
f 92/46/62 90/47/62 88/48/62 
f 96/49/62 94/50/62 92/46/62 
f 95/51/62 96/49/62 92/46/62 
f 89/52/62 93/53/62 92/46/62 
f 95/51/62 97/54/62 96/49/62 
f 89/52/62 91/55/62 93/53/62 
f 87/56/62 86/57/62 89/52/62 
f 98/58/63 99/59/63 27/59/63 
f 100/60/64 98/61/64 26/42/64 
f 39/62/65 38/63/65 100/64/65 
f 40/65/66 39/40/66 101/40/66 
f 102/40/67 49/41/67 103/66/67 
f 104/67/68 105/66/68 30/42/68 
f 106/67/69 104/66/69 45/42/69 
f 49/40/70 48/41/70 106/66/70 
f 107/68/71 108/69/71 31/42/71 
f 109/68/72 107/69/72 33/42/72 
f 51/40/73 50/41/73 109/69/73 
f 52/40/74 51/41/74 110/69/74 
f 111/40/75 61/41/75 112/70/75 
f 113/71/76 114/70/76 36/42/76 
f 115/71/77 113/70/77 57/42/77 
f 61/40/78 60/41/78 115/70/78 
f 116/40/79 40/65/79 99/65/79 
f 38/40/80 116/41/80 98/61/80 
f 44/72/81 41/62/81 101/62/81 
f 41/40/82 27/65/82 99/65/82 
f 117/40/83 52/41/83 108/69/83 
f 50/40/84 117/41/84 107/69/84 
f 56/42/73 46/65/73 110/68/73 
f 46/42/85 31/65/85 108/68/85 
f 37/42/86 36/65/86 114/71/86 
f 59/40/87 111/41/87 114/70/87 
f 60/40/88 59/41/88 113/70/88 
f 58/42/89 37/65/89 112/71/89 
f 32/42/67 30/65/67 105/67/67 
f 47/40/90 102/41/90 105/66/90 
f 48/40/91 47/41/91 104/66/91 
f 53/42/92 32/65/92 103/67/92 
f 1/11/2 4/4/2 2/6/2 
f 8/17/3 9/10/3 1/11/3 
f 6/23/4 10/12/4 7/14/4 
f 12/21/5 13/16/5 8/17/5 
f 15/26/6 16/20/6 12/21/6 
f 14/32/7 17/22/7 6/23/7 
f 18/30/8 19/25/8 15/26/8 
f 21/35/9 22/29/9 18/30/9 
f 20/38/10 23/31/10 14/32/10 
f 24/36/11 25/34/11 21/35/11 
f 7/14/12 11/13/12 24/36/12 
f 2/39/13 5/37/13 20/38/13 
f 4/6/14 26/39/14 5/5/14 
f 5/6/15 27/39/15 23/5/15 
f 9/6/16 29/39/16 4/5/16 
f 23/6/17 28/39/17 17/5/17 
f 13/6/18 31/39/18 9/5/18 
f 17/6/19 30/39/19 10/5/19 
f 16/6/20 33/39/20 13/5/20 
f 10/6/21 32/39/21 11/5/21 
f 19/6/22 35/39/22 16/5/22 
f 11/6/23 34/39/23 25/5/23 
f 22/6/24 37/39/24 19/5/24 
f 25/6/25 36/39/25 22/5/25 
f 116/65/2 38/40/2 40/42/2 
f 27/65/13 41/40/13 28/42/13 
f 29/65/3 43/40/3 26/42/3 
f 28/65/10 42/40/10 30/42/10 
f 31/65/5 46/40/5 29/42/5 
f 102/65/7 47/40/7 49/42/7 
f 117/65/6 50/40/6 52/42/6 
f 32/65/4 53/40/4 34/42/4 
f 35/65/8 55/40/8 33/42/8 
f 34/65/12 54/40/12 36/42/12 
f 37/65/9 58/40/9 35/42/9 
f 111/65/11 59/40/11 61/42/11 
f 44/65/26 62/40/26 41/42/26 
f 41/65/27 63/40/27 42/42/27 
f 43/65/28 65/40/28 44/42/28 
f 42/65/29 64/40/29 45/42/29 
f 46/65/30 67/40/30 43/42/30 
f 45/65/31 66/40/31 53/42/31 
f 56/65/32 69/40/32 46/42/32 
f 53/65/33 68/40/33 54/42/33 
f 55/65/34 71/40/34 56/42/34 
f 54/65/35 70/40/35 57/42/35 
f 58/65/36 73/40/36 55/42/36 
f 57/65/37 72/40/37 58/42/37 
f 62/73/38 74/43/38 63/45/38 
f 63/73/39 75/43/39 64/45/39 
f 65/73/40 77/43/40 62/45/40 
f 64/73/41 76/43/41 66/45/41 
f 67/73/42 79/43/42 65/45/42 
f 66/73/43 78/43/43 68/45/43 
f 69/73/44 81/43/44 67/45/44 
f 68/73/45 80/43/45 70/45/45 
f 71/73/46 83/43/46 69/45/46 
f 70/73/47 82/43/47 72/45/47 
f 73/73/48 85/43/48 71/45/48 
f 72/73/49 84/43/49 73/45/49 
f 74/73/50 86/43/50 75/45/50 
f 75/73/51 87/43/51 76/45/51 
f 77/73/52 89/43/52 74/45/52 
f 76/73/53 88/43/53 78/45/53 
f 79/73/54 91/43/54 77/45/54 
f 78/73/55 90/43/55 80/45/55 
f 81/73/56 93/43/56 79/45/56 
f 80/73/57 92/43/57 82/45/57 
f 83/73/58 95/43/58 81/45/58 
f 82/73/59 94/43/59 84/45/59 
f 85/73/60 97/43/60 83/45/60 
f 84/73/61 96/43/61 85/45/61 
f 87/56/62 92/46/62 88/48/62 
f 93/53/62 95/51/62 92/46/62 
f 87/56/62 89/52/62 92/46/62 
f 26/59/93 98/58/93 27/59/93 
f 44/65/64 100/60/64 26/42/64 
f 101/62/94 39/62/94 100/64/94 
f 99/65/66 40/65/66 101/40/66 
f 105/67/95 102/40/95 103/66/95 
f 45/65/68 104/67/68 30/42/68 
f 53/65/91 106/67/91 45/42/91 
f 103/67/70 49/40/70 106/66/70 
f 33/65/83 107/68/83 31/42/83 
f 56/65/72 109/68/72 33/42/72 
f 110/68/96 51/40/96 109/69/96 
f 108/68/74 52/40/74 110/69/74 
f 114/71/97 111/40/97 112/70/97 
f 57/65/76 113/71/76 36/42/76 
f 58/65/88 115/71/88 57/42/88 
f 112/71/78 61/40/78 115/70/78 
f 98/60/98 116/40/98 99/65/98 
f 100/60/80 38/40/80 98/61/80 
f 100/64/99 44/72/99 101/62/99 
f 101/40/82 41/40/82 99/65/82 
f 107/68/71 117/40/71 108/69/71 
f 109/68/84 50/40/84 107/69/84 
f 109/69/100 56/42/100 110/68/100 
f 110/69/85 46/42/85 108/68/85 
f 112/70/97 37/42/97 114/71/97 
f 113/71/87 59/40/87 114/70/87 
f 115/71/77 60/40/77 113/70/77 
f 115/70/89 58/42/89 112/71/89 
f 103/66/95 32/42/95 105/67/95 
f 104/67/90 47/40/90 105/66/90 
f 106/67/69 48/40/69 104/66/69 
f 106/66/92 53/42/92 103/67/92 
# 230 faces

